<?xml version="1.0" encoding="UTF-8"?>
<svg width="79px" height="18px" viewBox="0 0 79 18" version="1.1" xmlns="http://www.w3.org/2000/svg" xmlns:xlink="http://www.w3.org/1999/xlink">
    <!-- Generator: Sketch 46.2 (44496) - http://www.bohemiancoding.com/sketch -->
    <title>Group</title>
    <desc>Created with Sketch.</desc>
    <defs></defs>
    <g id="home" stroke="none" stroke-width="1" fill="none" fill-rule="evenodd">
        <g id="Desktop-HD" transform="translate(-829.000000, -1193.000000)" fill-rule="nonzero" fill="#FFFFFF">
            <g id="Why-Semantify" transform="translate(0.000000, 664.000000)">
                <g id="topic" transform="translate(375.000000, 301.000000)">
                    <g id="text2" transform="translate(443.000000, 0.000000)">
                        <g id="annotation" transform="translate(0.000000, 217.000000)">
                            <g id="Group" transform="translate(11.000000, 11.000000)">
                                <g id="Shape">
                                    <path d="M0.0443902159,8.36356292 L2.02292555,8.06187386 C2.10712604,8.44541472 2.27781699,8.7365934 2.53511583,8.93535117 C2.79229724,9.13422639 3.15252737,9.2335172 3.61557134,9.2335172 C4.12535421,9.2335172 4.50889507,9.14003939 4.76619392,8.95290762 C4.93917484,8.82202695 5.02578273,8.64663862 5.02578273,8.42674264 C5.02578273,8.27707246 4.97898511,8.15312041 4.88544858,8.05488651 C4.78721468,7.96134998 4.5673187,7.87485952 4.22593681,7.79529769 C2.63558099,7.44452104 1.62758253,7.12415991 1.20200014,6.83409686 C0.612655439,6.43188392 0.317953729,5.87289602 0.317953729,5.15725058 C0.317953729,4.51177222 0.572845166,3.96922513 1.08268676,3.5294919 C1.59241092,3.08993481 2.38297952,2.86998012 3.45409899,2.86998012 C4.47372346,2.86998012 5.23146914,3.03609113 5.72727732,3.36813699 C6.22302678,3.70030028 6.5644674,4.19141108 6.75159917,4.84152811 L4.8923185,5.18525869 C4.81275667,4.89531308 4.66191214,4.67306841 4.43978491,4.51875957 C4.21759896,4.364392 3.90064342,4.28723758 3.48915317,4.28723758 C2.96997554,4.28723758 2.59811941,4.35981206 2.37358477,4.50472615 C2.22385587,4.60765743 2.14905013,4.74094551 2.14905013,4.90464911 C2.14905013,5.04498326 2.21451983,5.16423793 2.34551794,5.26247183 C2.52319624,5.39346994 3.13708474,5.57819431 4.18724216,5.81676236 C5.23722343,6.05533041 5.97042531,6.34768343 6.38673038,6.69376271 C6.79827935,7.04453936 7.00414192,7.53336019 7.00414192,8.16010776 C7.00414192,8.84304771 6.71877624,9.42998501 6.14816233,9.92109581 C5.57743098,10.4122066 4.73319484,10.657762 3.61539519,10.657762 C2.60035066,10.657762 1.79704042,10.4520169 1.20540574,10.0403505 C0.613771067,9.62886022 0.226824608,9.06987232 0.0443902159,8.36356292 Z"></path>
                                    <path d="M13.0450866,8.11800752 L15.0095885,8.44776341 C14.7570458,9.16810622 14.3581797,9.71652503 13.8133427,10.0930198 C13.2683882,10.4695733 12.5866226,10.6578207 11.7681633,10.6578207 C10.4725092,10.6578207 9.51359832,10.234587 8.89160685,9.38794348 C8.40049605,8.70981834 8.15494065,7.85383876 8.15494065,6.82006344 C8.15494065,5.58524037 8.47770919,4.61822653 9.12318755,3.9189632 C9.76866591,3.21975858 10.5848352,2.87003884 11.5717542,2.87003884 C12.6802765,2.87003884 13.5548695,3.23608197 14.1957679,3.96805079 C14.8365489,4.70013705 15.1429353,5.82145974 15.1148685,7.33219501 L10.1755762,7.33219501 C10.1896096,7.91695977 10.3485571,8.37178333 10.6526536,8.69684184 C10.9566326,9.02201779 11.3354761,9.18448832 11.7892428,9.18448832 C12.0979779,9.18448832 12.3575667,9.10028784 12.5680092,8.93188686 C12.7784517,8.76348588 12.9373992,8.49227106 13.0450866,8.11800752 Z M13.1573539,6.12543877 C13.1433205,5.55482485 12.995999,5.12108077 12.7153307,4.82397166 C12.4347211,4.52697998 12.0932218,4.37848413 11.6910089,4.37848413 C11.2606117,4.37848413 10.9052551,4.53520039 10.6245868,4.84851545 C10.3439772,5.16194796 10.205933,5.58758906 10.2106304,6.12543877 L13.1573539,6.12543877 L13.1573539,6.12543877 Z"></path>
                                    <path d="M16.5741675,3.03843981 L18.3912892,3.03843981 L18.3912892,4.05577431 C19.0413475,3.26538186 19.815534,2.87003884 20.7136138,2.87003884 C21.1906912,2.87003884 21.6046476,2.96827274 21.9554242,3.16474055 C22.3062009,3.36120835 22.5939153,3.65825875 22.8183912,4.05577431 C23.1457397,3.65825875 23.4989237,3.36114964 23.8777672,3.16474055 C24.2566694,2.96827274 24.6611723,2.87003884 25.0915695,2.87003884 C25.6387553,2.87003884 26.1018579,2.98124925 26.4807601,3.20331776 C26.8595449,3.42556242 27.1425619,3.75179528 27.3296349,4.18207504 C27.4653304,4.50020492 27.5330901,5.01468518 27.5330901,5.72557452 L27.5330901,10.4894785 L25.5616008,10.4894785 L25.5616008,6.23077745 C25.5616008,5.49182128 25.4937824,5.01468518 25.3581457,4.79948658 C25.17577,4.518877 24.8951017,4.37854285 24.5162582,4.37854285 C24.2401699,4.37854285 23.9805811,4.46274334 23.7374331,4.6310856 C23.4941676,4.79948658 23.3187793,5.04621632 23.2112681,5.37127484 C23.1036394,5.69645078 23.0498544,6.20969797 23.0498544,6.91131 L23.0498544,10.4894785 L21.0783652,10.4894785 L21.0783652,6.40616578 C21.0783652,5.68124302 21.043311,5.21344296 20.9731439,5.00300045 C20.9029769,4.79255795 20.7942326,4.63590041 20.6469111,4.53291041 C20.4995896,4.43009657 20.2995987,4.37860157 20.047056,4.37860157 C19.7429595,4.37860157 19.4693373,4.46051209 19.2261893,4.62415697 C18.9829239,4.787978 18.8087686,5.02407993 18.7034886,5.33275634 C18.5982674,5.64149147 18.5456568,6.15362303 18.5456568,6.86926847 L18.5456568,10.4895372 L16.5741675,10.4895372 L16.5741675,3.03843981 L16.5741675,3.03843981 Z"></path>
                                    <path d="M30.9710419,5.31155943 L29.1819283,4.9888496 C29.3830347,4.2685655 29.7291727,3.73535446 30.2203422,3.38915775 C30.711453,3.04307847 31.4411319,2.86998012 32.4093201,2.86998012 C33.2886691,2.86998012 33.9434248,2.97414446 34.373822,3.18217956 C34.8041018,3.39033209 35.1069652,3.654677 35.2824122,3.97497942 C35.4578005,4.29539927 35.5454653,4.88356963 35.5454653,5.7394905 L35.5244446,8.04073566 C35.5244446,8.6956675 35.5560344,9.17855789 35.6191554,9.48952427 C35.6822765,9.8006668 35.8003568,10.1339457 35.9734551,10.4893023 L34.0229866,10.4893023 C33.9714916,10.3584216 33.9083119,10.1642438 33.8335062,9.90700368 C33.800742,9.79015641 33.7774312,9.71294327 33.7633978,9.67548169 C33.4266546,10.0029476 33.0664245,10.248503 32.6829423,10.4121479 C32.2994014,10.5758515 31.8901424,10.6577033 31.4551653,10.6577033 C30.6880249,10.6577033 30.0835311,10.4496682 29.6415079,10.0333044 C29.1994847,9.61705806 28.9784731,9.09083436 28.9784731,8.45469204 C28.9784731,8.03374831 29.078997,7.65836914 29.2801622,7.32861326 C29.4812686,6.99885737 29.7631113,6.74631462 30.1255727,6.57086757 C30.488034,6.39547925 31.010676,6.24234475 31.6936746,6.11134663 C32.6150652,5.93836571 33.2534975,5.77695209 33.6090303,5.62722318 L33.6090303,5.43075538 C33.6090303,5.05191189 33.5153763,4.7818127 33.3284207,4.62039907 C33.1412302,4.45904416 32.7881636,4.3783667 32.2689859,4.3783667 C31.9181506,4.3783667 31.6445283,4.44741815 31.4481192,4.58534489 C31.2516514,4.72344778 31.0925865,4.96548015 30.9710419,5.31155943 Z M33.609089,6.91125128 C33.3564875,6.99545177 32.9566233,7.09603436 32.4093201,7.21294034 C31.8620756,7.32990503 31.5042529,7.44446232 31.3359106,7.55672964 C31.0786118,7.73916403 30.9500211,7.97068602 30.9500211,8.25135432 C30.9500211,8.52738395 31.0528349,8.765952 31.2587562,8.96699975 C31.4645013,9.16816494 31.7264388,9.26868881 32.0445687,9.26868881 C32.399984,9.26868881 32.7391347,9.15184155 33.0618445,8.91785344 C33.3004126,8.74017515 33.4570114,8.52268657 33.5319345,8.26538773 C33.5833708,8.09698675 33.609089,7.77668434 33.609089,7.30418689 L33.609089,6.91125128 L33.609089,6.91125128 Z"></path>
                                    <path d="M44.26644,10.4894197 L42.2949507,10.4894197 L42.2949507,6.68671664 C42.2949507,5.88229077 42.2528504,5.36188008 42.1687087,5.12566072 C42.0845082,4.88955879 41.9476971,4.70595005 41.7582753,4.57495194 C41.5687949,4.44407127 41.3408546,4.37848413 41.0742198,4.37848413 C40.7327791,4.37848413 40.4263927,4.47207938 40.1551779,4.65909371 C39.8838456,4.84622548 39.6979469,5.09407085 39.5973643,5.40280598 C39.496723,5.71148239 39.4465785,6.28221374 39.4465785,7.11470643 L39.4465785,10.4894197 L37.4750892,10.4894197 L37.4750892,3.03843981 L39.3063031,3.03843981 L39.3063031,4.13292873 C39.9563614,3.29098256 40.7749381,2.87003884 41.7618571,2.87003884 C42.1968342,2.87003884 42.5944085,2.94842632 42.9545799,3.10508386 C43.3146926,3.26185882 43.5870818,3.46179095 43.7719236,3.70493894 C43.9566479,3.94820437 44.0852386,4.22411657 44.1578131,4.5328517 C44.2302702,4.84158682 44.2665574,5.28355131 44.2665574,5.8588626 L44.2665574,10.4894197 L44.26644,10.4894197 Z"></path>
                                    <path d="M49.6828096,3.03843981 L49.6828096,4.61000612 L48.3357192,4.61000612 L48.3357192,7.6128633 C48.3357192,8.2209388 48.3485783,8.5752972 48.3742964,8.67582108 C48.4000146,8.77646239 48.4585556,8.85942981 48.5496848,8.92489951 C48.6409313,8.99048664 48.7519656,9.02313341 48.8829637,9.02313341 C49.0653394,9.02313341 49.3295668,8.9600124 49.6757635,8.83371167 L49.8441645,10.3631777 C49.3857005,10.5596455 48.8665229,10.6578794 48.2866316,10.6578794 C47.9310989,10.6578794 47.610679,10.5982228 47.3254308,10.4789681 C47.0401238,10.3597134 46.830797,10.2053459 46.6975089,10.0159241 C46.5642208,9.82650237 46.4717999,9.57043659 46.4203636,9.24766805 C46.3782634,9.01855347 46.3572426,8.5555095 46.3572426,7.85847742 L46.3572426,4.61006484 L45.4521754,4.61006484 L45.4521754,3.03849853 L46.3572426,3.03849853 L46.3572426,1.55812006 L48.3357192,0.407497484 L48.3357192,3.03855725 L49.6828096,3.03855725 L49.6828096,3.03843981 Z"></path>
                                    <path d="M51.0509208,2.02809267 L51.0509208,0.203924894 L53.02241,0.203924894 L53.02241,2.02809267 L51.0509208,2.02809267 Z M51.0509208,10.4894197 L51.0509208,3.03843981 L53.02241,3.03843981 L53.02241,10.4894197 L51.0509208,10.4894197 L51.0509208,10.4894197 Z"></path>
                                    <path d="M54.1800787,3.03843981 L55.2745676,3.03843981 L55.2745676,2.47716194 C55.2745676,1.85041437 55.3412116,1.3826143 55.4744997,1.07393789 C55.6077878,0.765261486 55.8533432,0.513834364 56.2112246,0.319715245 C56.5690474,0.125713561 57.0215809,0.0285952845 57.5688254,0.0285952845 C58.1301033,0.0285952845 58.6796377,0.112795773 59.2175461,0.281196751 L58.95097,1.65629525 C58.6375375,1.58154823 58.3358484,1.54402793 58.0459028,1.54402793 C57.7605371,1.54402793 57.5558489,1.61067197 57.4320143,1.74396005 C57.3080035,1.87730685 57.2460569,2.13337264 57.2460569,2.51221612 L57.2460569,3.03843981 L58.719448,3.03843981 L58.719448,4.58898536 L57.2460569,4.58898536 L57.2460569,10.4894785 L55.2745676,10.4894785 L55.2745676,4.58898536 L54.1800787,4.58898536 L54.1800787,3.03843981 L54.1800787,3.03843981 Z"></path>
                                    <path d="M58.8948363,3.03843981 L60.9926263,3.03843981 L62.7747526,8.32850874 L64.5147198,3.03843981 L66.5563762,3.03843981 L63.9253164,10.2088102 L63.4552264,11.5067542 C63.2821867,11.9417314 63.1172501,12.2737772 62.9605926,12.5030093 C62.8038176,12.7321238 62.6238493,12.9180813 62.4203942,13.0608228 C62.216939,13.2034469 61.9666275,13.3144812 61.6696945,13.3941017 C61.3725854,13.4736049 61.0370753,13.5133564 60.6629291,13.5133564 C60.2840857,13.5133564 59.9122295,13.4735461 59.5473607,13.3941017 L59.3719724,11.8505436 C59.6807075,11.9112572 59.9589097,11.9417314 60.2069312,11.9417314 C60.6652778,11.9417314 61.004311,11.8072102 61.224207,11.5382854 C61.4439856,11.2692431 61.6123865,10.9266869 61.72941,10.5104405 L58.8948363,3.03843981 Z"></path>
                                    <polygon points="66.7527853 10.4894197 66.7527853 8.51793048 68.7242745 8.51793048 68.7242745 10.4894197"></polygon>
                                    <path d="M70.7449101,2.02809267 L70.7449101,0.203924894 L72.7163994,0.203924894 L72.7163994,2.02809267 L70.7449101,2.02809267 Z M70.7449101,10.4894197 L70.7449101,3.03843981 L72.7163994,3.03843981 L72.7163994,10.4894197 L70.7449101,10.4894197 L70.7449101,10.4894197 Z"></path>
                                    <path d="M78.1538485,3.03843981 L78.1538485,4.61000612 L76.8067581,4.61000612 L76.8067581,7.6128633 C76.8067581,8.2209388 76.8196172,8.5752972 76.8453354,8.67582108 C76.8710535,8.77646239 76.9295946,8.85942981 77.0207237,8.92489951 C77.1119702,8.99048664 77.2230045,9.02313341 77.3540026,9.02313341 C77.5363783,9.02313341 77.8006058,8.9600124 78.1468025,8.83371167 L78.3152034,10.3631777 C77.8567394,10.5596455 77.3375618,10.6578794 76.7576706,10.6578794 C76.4021378,10.6578794 76.081718,10.5982228 75.7964697,10.4789681 C75.5111628,10.3597134 75.3018359,10.2053459 75.1685478,10.0159241 C75.0352597,9.82650237 74.9428388,9.57043659 74.8914025,9.24766805 C74.8493023,9.01855347 74.8282815,8.5555095 74.8282815,7.85847742 L74.8282815,4.61006484 L73.9232144,4.61006484 L73.9232144,3.03849853 L74.8282815,3.03849853 L74.8282815,1.55812006 L76.8067581,0.407497484 L76.8067581,3.03855725 L78.1538485,3.03855725 L78.1538485,3.03843981 Z"></path>
                                </g>
                                <g transform="translate(1.000000, 13.000000)" id="Shape">
                                    <path d="M0.0226648457,3.47400413 L0.0226648457,0.045505843 L0.679827935,0.045505843 L0.679827935,1.28032891 C0.882519768,1.04957025 1.12261447,0.934190918 1.40017075,0.934190918 C1.70262313,0.934190918 1.95287591,1.04375724 2.15087037,1.26277246 C2.34886482,1.4818464 2.44792077,1.79639453 2.44792077,2.20641685 C2.44792077,2.63053131 2.34692715,2.95711647 2.14505736,3.18628977 C1.94312885,3.41546306 1.69792576,3.53007907 1.4095655,3.53007907 C1.26764599,3.53007907 1.12772286,3.49461387 0.989796122,3.42362476 C0.851810663,3.35269436 0.732908299,3.24788413 0.633147748,3.10907663 L0.633147748,3.47388669 L0.0226648457,3.47388669 L0.0226648457,3.47400413 Z M0.675130558,2.17835002 C0.675130558,2.43559015 0.715645438,2.62583393 0.796733914,2.74896394 C0.91052788,2.92358894 1.06178343,3.01090144 1.25044185,3.01090144 C1.39541466,3.01090144 1.51895568,2.94889606 1.62112364,2.82494401 C1.72323288,2.70099197 1.77431686,2.50569851 1.77431686,2.23912234 C1.77431686,1.95534203 1.72288057,1.75071253 1.61994929,1.62517512 C1.51707673,1.49969643 1.38525658,1.43692773 1.22472371,1.43692773 C1.06724413,1.43692773 0.936246021,1.49811107 0.831846809,1.62047775 C0.727388881,1.74302058 0.675130558,1.92891929 0.675130558,2.17835002 Z"></path>
                                    <path d="M3.60547198,3.47400413 L2.94830889,3.47400413 L2.94830889,0.990324577 L3.55873307,0.990324577 L3.55873307,1.34344992 C3.663191,1.17663431 3.75713855,1.06671568 3.84051699,1.01369403 C3.92389544,0.960672383 4.01860631,0.934190918 4.12464961,0.934190918 C4.27431979,0.934190918 4.41852928,0.975527839 4.55733678,1.05814296 L4.35388162,1.63110556 C4.24314095,1.55941184 4.14026839,1.52353562 4.04520521,1.52353562 C3.95319533,1.52353562 3.87521887,1.54890146 3.81133454,1.5995157 C3.74739149,1.65018866 3.69707083,1.74178752 3.66049001,1.87431228 C3.62385047,2.00683703 3.60553069,2.28439332 3.60553069,2.70686369 L3.60553069,3.47400413 L3.60547198,3.47400413 Z"></path>
                                    <path d="M4.84035376,0.653522622 L4.84035376,0.0454471258 L5.49751685,0.0454471258 L5.49751685,0.653522622 L4.84035376,0.653522622 Z M4.84035376,3.47400413 L4.84035376,0.990324577 L5.49751685,0.990324577 L5.49751685,3.47400413 L4.84035376,3.47400413 Z"></path>
                                    <path d="M8.43020696,3.47400413 L7.77304387,3.47400413 L7.77304387,2.20647557 C7.77304387,1.93831404 7.75901045,1.76486338 7.73094362,1.6861236 C7.70287679,1.60744253 7.65725352,1.54620047 7.59413251,1.50257358 C7.53095278,1.45894668 7.45497271,1.43710388 7.36613356,1.43710388 C7.25228087,1.43710388 7.15017163,1.46828272 7.05974712,1.53064041 C6.96926389,1.59299809 6.90731722,1.67561321 6.87378969,1.77854449 C6.84026216,1.88141706 6.82352776,2.07171956 6.82352776,2.34915841 L6.82352776,3.47406285 L6.16636467,3.47406285 L6.16636467,0.990383295 L6.77678885,0.990383295 L6.77678885,1.35519336 C6.99345538,1.07452507 7.26631429,0.934249635 7.59530685,0.934249635 C7.74027966,0.934249635 7.87280442,0.960378797 7.99288113,1.0125784 C8.11289912,1.06483673 8.20373465,1.13148077 8.26532901,1.21251053 C8.32686466,1.293599 8.36972822,1.38555016 8.39391972,1.48848144 C8.41805249,1.59141273 8.43014824,1.73873422 8.43014824,1.93050465 L8.43014824,3.47400413 L8.43020696,3.47400413 Z"></path>
                                    <path d="M9.03593377,3.63770773 L9.78663338,3.72889557 C9.79908143,3.81620807 9.8279703,3.87621706 9.87318256,3.90898127 C9.93554024,3.95577889 10.0337741,3.97914834 10.1678843,3.97914834 C10.3393973,3.97914834 10.467988,3.9534302 10.5537738,3.90199392 C10.6114341,3.86770307 10.6551197,3.81233273 10.6847132,3.73594163 C10.7049707,3.68133462 10.7151287,3.58075203 10.7151287,3.43425257 L10.7151287,3.07179119 C10.5186609,3.33995272 10.2707568,3.47406285 9.97141646,3.47406285 C9.63778524,3.47406285 9.37349904,3.33296537 9.1786166,3.05077043 C9.02577569,2.82782116 8.94944331,2.55032359 8.94944331,2.2181603 C8.94944331,1.80191395 9.04961488,1.48384278 9.24995802,1.26400552 C9.45030116,1.04416827 9.69932088,0.934249635 9.99719332,0.934249635 C10.3042844,0.934249635 10.5576492,1.06912308 10.757229,1.33886998 L10.757229,0.990383295 L11.3722918,0.990383295 L11.3722918,3.21917141 C11.3722918,3.51228775 11.3481003,3.73136169 11.2998348,3.8763345 C11.2514518,4.02136602 11.1836334,4.13510127 11.0963796,4.21777511 C11.0090671,4.30039024 10.8925134,4.36509661 10.7467186,4.41189423 C10.6009237,4.45863314 10.4165517,4.4820613 10.1936611,4.4820613 C9.7727174,4.4820613 9.47414035,4.40989785 9.29792999,4.26574708 C9.12171962,4.12147888 9.03364379,3.93869218 9.03364379,3.71732827 C9.03358508,3.69536804 9.0343484,3.66882785 9.03593377,3.63770773 Z M9.62292978,2.18069871 C9.62292978,2.44422158 9.67401376,2.63716636 9.776123,2.75953303 C9.87823224,2.88195843 10.004122,2.94308305 10.1538509,2.94308305 C10.3143837,2.94308305 10.4500205,2.88037307 10.5607612,2.75483566 C10.6714431,2.62935697 10.7268135,2.44339954 10.7268135,2.1970221 C10.7268135,1.93978197 10.6737918,1.74883358 10.5678072,1.6240595 C10.4617639,1.49934413 10.3277125,1.43692773 10.1655356,1.43692773 C10.0079973,1.43692773 9.87823224,1.49811107 9.776123,1.62047775 C9.67395504,1.74302058 9.62292978,1.92968261 9.62292978,2.18069871 Z"></path>
                                    <path d="M13.3039708,0.990324577 L13.9096976,0.990324577 L13.9096976,1.3294165 C14.1263642,1.06595235 14.3844263,0.934190918 14.6838254,0.934190918 C14.8428316,0.934190918 14.9808171,0.966955125 15.0977818,1.03242482 C15.2146878,1.09789452 15.3106317,1.19695046 15.3854374,1.32947522 C15.494534,1.19695046 15.612262,1.09795324 15.7385628,1.03242482 C15.8648635,0.966896408 15.9996782,0.934190918 16.1431831,0.934190918 C16.3255588,0.934190918 16.4799264,0.971241482 16.6062271,1.04528389 C16.7325278,1.1193263 16.8268277,1.22807059 16.8891854,1.37151675 C16.9343976,1.47756004 16.9570037,1.64907303 16.9570037,1.885997 L16.9570037,3.47394541 L16.2998406,3.47394541 L16.2998406,2.05439798 C16.2998406,1.80807925 16.2772345,1.64901431 16.2320223,1.57732059 C16.1711912,1.48378407 16.0776547,1.43698645 15.951354,1.43698645 C15.8593441,1.43698645 15.7727949,1.46505327 15.6917652,1.52118693 C15.6106767,1.57732059 15.5521943,1.65958341 15.5163768,1.76791668 C15.4805006,1.87630866 15.4625919,2.04741063 15.4625919,2.2812813 L15.4625919,3.47400413 L14.8054288,3.47400413 L14.8054288,2.11288033 C14.8054288,1.87120026 14.793744,1.71530605 14.7703746,1.64513898 C14.7470051,1.5749719 14.7107179,1.5227723 14.6616303,1.48842273 C14.6125427,1.45419059 14.5458399,1.43698645 14.4616395,1.43698645 C14.3602935,1.43698645 14.2691057,1.46428995 14.1880172,1.51883825 C14.1069288,1.57344526 14.0488574,1.65212633 14.0138032,1.75499889 C13.9786904,1.85793017 13.9611926,2.02862112 13.9611926,2.26718917 L13.9611926,3.47394541 L13.3040295,3.47394541 L13.3040295,0.990324577 L13.3039708,0.990324577 Z"></path>
                                    <path d="M19.0500964,2.68349424 L19.7049108,2.79341287 C19.6207103,3.03350757 19.4877745,3.21635298 19.3061621,3.34183167 C19.1244911,3.46736908 18.8972554,3.53013779 18.6244553,3.53013779 C18.1925901,3.53013779 17.8729336,3.38904032 17.6656031,3.10684537 C17.5018995,2.88078409 17.4200477,2.59547713 17.4200477,2.25086579 C17.4200477,1.8392581 17.5276177,1.51690058 17.7428162,1.28385194 C17.9579561,1.05080331 18.229993,0.934190918 18.5589856,0.934190918 C18.928493,0.934190918 19.220024,1.05620529 19.4336372,1.30017533 C19.6471917,1.54420408 19.7493597,1.91799788 19.7399649,2.42155674 L18.0935342,2.42155674 C18.0982316,2.61649789 18.1511945,2.76810575 18.2525404,2.87643901 C18.3538863,2.984831 18.4801283,3.03896827 18.6314426,3.03896827 C18.7343152,3.03896827 18.8208643,3.01090144 18.8910314,2.95476778 C18.9612572,2.89869284 19.0142201,2.80826832 19.0500964,2.68349424 Z M19.0875579,2.0193438 C19.0828606,1.82915874 19.033773,1.68453823 18.9402365,1.585541 C18.8466999,1.48654378 18.7328472,1.43704516 18.5987958,1.43704516 C18.4553497,1.43704516 18.3368583,1.48930349 18.2433218,1.5937027 C18.1497853,1.69816063 18.1038097,1.84008014 18.1053363,2.0193438 L19.0875579,2.0193438 L19.0875579,2.0193438 Z"></path>
                                    <path d="M20.7666942,1.74807026 L20.1703034,1.64050032 C20.2373585,1.40040562 20.3527378,1.2226686 20.5164414,1.10723056 C20.680145,0.991909942 20.9233517,0.934190918 21.2461203,0.934190918 C21.5392366,0.934190918 21.7574885,0.968892793 21.9009347,1.03823783 C22.0443221,1.10764158 22.1453157,1.1957174 22.2037981,1.30252402 C22.2622804,1.40933064 22.2915216,1.60538742 22.2915216,1.89069438 L22.2844755,2.6577761 C22.2844755,2.87608671 22.2949859,3.0370306 22.3160654,3.14072521 C22.3371449,3.24441981 22.3764854,3.35551278 22.4342044,3.47400413 L21.7840287,3.47400413 C21.7668833,3.43037724 21.7458038,3.36567086 21.7209077,3.27988501 C21.7099863,3.24089678 21.7021769,3.21517864 21.6975382,3.20273059 C21.5852709,3.31188589 21.4651942,3.39373769 21.3373668,3.44828599 C21.2094807,3.50283428 21.0731393,3.53013779 20.9281078,3.53013779 C20.6723943,3.53013779 20.4708769,3.46079275 20.3235554,3.32198525 C20.1762339,3.18323647 20.1025438,3.00784814 20.1025438,2.79576156 C20.1025438,2.65542741 20.1360126,2.53030102 20.2030676,2.42038239 C20.2701227,2.31046376 20.3640702,2.22626327 20.4848516,2.16783964 C20.6056916,2.10935729 20.7799056,2.05833203 21.0075522,2.01464642 C21.3146433,1.95698612 21.5274932,1.90320115 21.6459845,1.85323279 L21.6459845,1.7877631 C21.6459845,1.66152108 21.6148057,1.57144887 21.552448,1.5176639 C21.4900316,1.46387893 21.3723623,1.43698645 21.1992639,1.43698645 C21.082358,1.43698645 20.9911701,1.46000359 20.9256417,1.50597917 C20.8602894,1.55201347 20.8072091,1.63269093 20.7666942,1.74807026 Z M21.6460432,2.2812813 C21.5618427,2.30934813 21.4285547,2.34287566 21.2461203,2.38180518 C21.0636859,2.42079341 20.9444312,2.4589596 20.8882975,2.49642119 C20.8025704,2.55725222 20.7597068,2.63440665 20.7597068,2.72794317 C20.7597068,2.81995305 20.7939977,2.89945616 20.8625794,2.96651122 C20.9311611,3.03356629 21.0184736,3.06709382 21.1245169,3.06709382 C21.2430083,3.06709382 21.3560389,3.02810558 21.4636088,2.95012912 C21.543112,2.89088345 21.5953703,2.81836769 21.6202664,2.73264055 C21.6374118,2.67650689 21.6459845,2.56975899 21.6459845,2.4122207 L21.6459845,2.2812813 L21.6460432,2.2812813 Z"></path>
                                    <path d="M25.1984348,3.47400413 L24.5413305,3.47400413 L24.5413305,2.20647557 C24.5413305,1.93831404 24.5272971,1.76486338 24.4992302,1.6861236 C24.4711047,1.60744253 24.4255401,1.54620047 24.3624191,1.50257358 C24.2992394,1.45894668 24.2232593,1.43710388 24.1344202,1.43710388 C24.0205675,1.43710388 23.9183995,1.46828272 23.827975,1.53064041 C23.7375505,1.59299809 23.6755451,1.67561321 23.6420763,1.77854449 C23.6085488,1.88141706 23.5918144,2.07171956 23.5918144,2.34915841 L23.5918144,3.47406285 L22.9346513,3.47406285 L22.9346513,0.990383295 L23.5450755,0.990383295 L23.5450755,1.35519336 C23.7616833,1.07452507 24.0346009,0.934249635 24.3635347,0.934249635 C24.5085663,0.934249635 24.641091,0.960378797 24.761109,1.0125784 C24.881127,1.06483673 24.9719625,1.13148077 25.0336156,1.21251053 C25.0951513,1.293599 25.1379561,1.38555016 25.1621476,1.48848144 C25.1863391,1.59141273 25.1983761,1.73873422 25.1983761,1.93050465 L25.1983761,3.47400413 L25.1984348,3.47400413 Z"></path>
                                    <path d="M25.8649927,0.653522622 L25.8649927,0.0454471258 L26.5221558,0.0454471258 L26.5221558,0.653522622 L25.8649927,0.653522622 Z M25.8649927,3.47400413 L25.8649927,0.990324577 L26.5221558,0.990324577 L26.5221558,3.47400413 L25.8649927,3.47400413 Z"></path>
                                    <path d="M29.4549046,3.47400413 L28.7977415,3.47400413 L28.7977415,2.20647557 C28.7977415,1.93831404 28.7837668,1.76486338 28.7556413,1.6861236 C28.7275744,1.60744253 28.6820099,1.54620047 28.6188302,1.50257358 C28.5557091,1.45894668 28.4797291,1.43710388 28.3908312,1.43710388 C28.2770372,1.43710388 28.1748693,1.46828272 28.0844448,1.53064041 C27.9940203,1.59299809 27.9320149,1.67561321 27.8984873,1.77854449 C27.8649598,1.88147578 27.8482841,2.07171956 27.8482841,2.34915841 L27.8482841,3.47406285 L27.191121,3.47406285 L27.191121,0.990383295 L27.8015452,0.990383295 L27.8015452,1.35519336 C28.0182117,1.07452507 28.2910706,0.934249635 28.6200632,0.934249635 C28.765036,0.934249635 28.8975608,0.960378797 29.0176375,1.0125784 C29.1377142,1.06477801 29.228491,1.13148077 29.2901441,1.21251053 C29.3517385,1.293599 29.3945433,1.38555016 29.4187348,1.48848144 C29.4428676,1.59141273 29.4549633,1.73873422 29.4549633,1.93050465 L29.4549633,3.47400413 L29.4549046,3.47400413 Z"></path>
                                    <path d="M30.0605727,3.63770773 L30.8112723,3.72889557 C30.8237204,3.81620807 30.8525505,3.87621706 30.8978215,3.90898127 C30.9601792,3.95577889 31.0583544,3.97914834 31.1925232,3.97914834 C31.3640362,3.97914834 31.4926269,3.9534302 31.5784127,3.90199392 C31.6360143,3.86770307 31.6797587,3.81233273 31.7093521,3.73594163 C31.7296096,3.68133462 31.7397677,3.58075203 31.7397677,3.43425257 L31.7397677,3.07179119 C31.5432999,3.33995272 31.2954545,3.47406285 30.9960554,3.47406285 C30.6623654,3.47406285 30.398138,3.33296537 30.2032555,3.05077043 C30.0504146,2.82782116 29.9740822,2.55032359 29.9740822,2.2181603 C29.9740822,1.80191395 30.0742538,1.48384278 30.2745969,1.26400552 C30.4748814,1.04416827 30.7239598,0.934249635 31.0218322,0.934249635 C31.3289233,0.934249635 31.5822881,1.06912308 31.7818679,1.33886998 L31.7818679,0.990383295 L32.3969895,0.990383295 L32.3969895,3.21917141 C32.3969895,3.51228775 32.372798,3.73136169 32.3244737,3.8763345 C32.2761494,4.02136602 32.2082723,4.13510127 32.1210185,4.21777511 C32.033706,4.30039024 31.9171524,4.36509661 31.7714162,4.41189423 C31.6256214,4.45863314 31.4412493,4.4820613 31.2183001,4.4820613 C30.7972976,4.4820613 30.4987206,4.40989785 30.3225689,4.26574708 C30.1463585,4.12147888 30.0582827,3.93869218 30.0582827,3.71732827 C30.058224,3.69536804 30.059046,3.66882785 30.0605727,3.63770773 Z M30.6475687,2.18069871 C30.6475687,2.44422158 30.698594,2.63716636 30.8007619,2.75953303 C30.9028124,2.88195843 31.0287609,2.94308305 31.1784311,2.94308305 C31.3390227,2.94308305 31.4746594,2.88037307 31.5854001,2.75483566 C31.696082,2.62935697 31.7514524,2.44339954 31.7514524,2.1970221 C31.7514524,1.93978197 31.6984307,1.74883358 31.5923874,1.6240595 C31.4863441,1.49934413 31.3522927,1.43692773 31.1901158,1.43692773 C31.0326362,1.43692773 30.9028124,1.49811107 30.8007619,1.62047775 C30.698594,1.74302058 30.6475687,1.92968261 30.6475687,2.18069871 Z"></path>
                                    <path d="M35.5167526,0.990324577 L35.5167526,1.51419959 L35.0677421,1.51419959 L35.0677421,2.51515198 C35.0677421,2.71784381 35.0720284,2.83592413 35.0806011,2.86945166 C35.0891739,2.9029792 35.1087267,2.930635 35.1390835,2.95247781 C35.169499,2.97432061 35.2064909,2.98524202 35.2501765,2.98524202 C35.3110075,2.98524202 35.3990833,2.96422125 35.5144627,2.92206229 L35.5705963,3.43190388 C35.4177554,3.49737358 35.2447158,3.53013779 35.0514187,3.53013779 C34.9328686,3.53013779 34.826062,3.51023265 34.7309988,3.4704811 C34.6358769,3.43072954 34.5661209,3.37923454 34.5217307,3.31611353 C34.4773405,3.25299252 34.4465139,3.16761769 34.4293685,3.06004775 C34.4153351,2.98365665 34.4083477,2.82934781 34.4083477,2.59700378 L34.4083477,1.51419959 L34.1065999,1.51419959 L34.1065999,0.990324577 L34.4083477,0.990324577 L34.4083477,0.496865088 L35.0678008,0.113324228 L35.0678008,0.990324577 L35.5167526,0.990324577 L35.5167526,0.990324577 Z"></path>
                                    <path d="M35.8207317,2.1970221 C35.8207317,1.9787702 35.8745166,1.76750566 35.9821453,1.56328718 C36.0897152,1.35900998 36.2420864,1.20311577 36.4393175,1.09554583 C36.6364899,0.987917172 36.8567382,0.934132201 37.1000037,0.934132201 C37.4756764,0.934132201 37.7837069,1.05614658 38.0237429,1.30011661 C38.2638376,1.54414537 38.3839143,1.85246947 38.3839143,2.22503021 C38.3839143,2.60076168 38.262722,2.91225652 38.0202786,3.15933856 C37.7778352,3.40642061 37.4726231,3.53002035 37.104701,3.53002035 C36.8769957,3.53002035 36.6599181,3.47858407 36.4533509,3.37565279 C36.2467251,3.27278023 36.0897152,3.1219357 35.9821453,2.9231192 C35.8745166,2.72442014 35.8207317,2.48238777 35.8207317,2.1970221 Z M36.4942768,2.23213499 C36.4942768,2.47851244 36.5527005,2.66711214 36.6696065,2.79811025 C36.7865712,2.92904964 36.9307219,2.99457805 37.1022936,2.99457805 C37.2738066,2.99457805 37.4176051,2.92910836 37.5338065,2.79811025 C37.6499491,2.66717085 37.7080204,2.47692707 37.7080204,2.22749633 C37.7080204,1.98423091 37.6499491,1.79715785 37.5338065,1.66621846 C37.4176051,1.53527907 37.2738066,1.46975065 37.1022936,1.46975065 C36.9307219,1.46975065 36.7865712,1.53522035 36.6696065,1.66621846 C36.5527005,1.79715785 36.4942768,1.98581627 36.4942768,2.23213499 Z"></path>
                                    <path d="M41.3680994,0.990324577 L41.3680994,1.51419959 L40.9190889,1.51419959 L40.9190889,2.51515198 C40.9190889,2.71784381 40.9233752,2.83592413 40.9319479,2.86945166 C40.9405207,2.9029792 40.9600735,2.930635 40.9904303,2.95247781 C41.0208458,2.97432061 41.0578376,2.98524202 41.1015233,2.98524202 C41.1623543,2.98524202 41.2504301,2.96422125 41.3658095,2.92206229 L41.4219431,3.43190388 C41.2691022,3.49737358 41.0960626,3.53013779 40.9027655,3.53013779 C40.7842154,3.53013779 40.6774088,3.51023265 40.5823456,3.4704811 C40.4872237,3.43072954 40.4174677,3.37923454 40.3730775,3.31611353 C40.3286873,3.25299252 40.2978607,3.16761769 40.2807153,3.06004775 C40.2666819,2.98365665 40.2596945,2.82934781 40.2596945,2.59700378 L40.2596945,1.51419959 L39.9579467,1.51419959 L39.9579467,0.990324577 L40.2596945,0.990324577 L40.2596945,0.496865088 L40.9191476,0.113324228 L40.9191476,0.990324577 L41.3680994,0.990324577 L41.3680994,0.990324577 Z"></path>
                                    <path d="M42.4789117,0.0454471258 L42.4789117,1.30598833 C42.6909396,1.05808425 42.9443631,0.934132201 43.2390061,0.934132201 C43.3902029,0.934132201 43.526603,0.962199031 43.6482651,1.01833269 C43.7698685,1.07446635 43.8614673,1.14616007 43.9230617,1.23347257 C43.984656,1.32078507 44.0267563,1.41749233 44.0493624,1.52347691 C44.0719685,1.6295202 44.0832422,1.79398712 44.0832422,2.01693639 L44.0832422,3.47394541 L43.4260792,3.47394541 L43.4260792,2.16196792 C43.4260792,1.90161578 43.4135724,1.73632682 43.3886763,1.66615974 C43.3637215,1.59599267 43.3196836,1.54027003 43.2565038,1.49893311 C43.1933828,1.45765491 43.114232,1.43698645 43.0191688,1.43698645 C42.9100135,1.43698645 42.812543,1.46352663 42.7268158,1.51648956 C42.64103,1.5695112 42.57832,1.64942534 42.5385097,1.75623195 C42.4987581,1.86303857 42.478853,2.02092917 42.478853,2.22978631 L42.478853,3.47394541 L41.8217486,3.47394541 L41.8217486,0.0454471258 L42.4789117,0.0454471258 Z"></path>
                                    <path d="M46.1880783,2.68349424 L46.8428927,2.79341287 C46.7586922,3.03350757 46.6258152,3.21635298 46.4441441,3.34183167 C46.2625317,3.46736908 46.0352374,3.53013779 45.7624959,3.53013779 C45.3306308,3.53013779 45.0109155,3.38904032 44.8036438,3.10684537 C44.6399402,2.88078409 44.5580297,2.59547713 44.5580297,2.25086579 C44.5580297,1.8392581 44.6655996,1.51690058 44.8807395,1.28385194 C45.0959381,1.05080331 45.3679749,0.934190918 45.6969675,0.934190918 C46.066475,0.934190918 46.3580059,1.05620529 46.5716192,1.30017533 C46.7852324,1.54420408 46.8873416,1.91799788 46.8780056,2.42155674 L45.2315748,2.42155674 C45.2362722,2.61649789 45.2892352,2.76810575 45.3906398,2.87643901 C45.4919857,2.984831 45.6182277,3.03896827 45.7694833,3.03896827 C45.8723558,3.03896827 45.958905,3.01090144 46.0290721,2.95476778 C46.0992392,2.89869284 46.1522608,2.80826832 46.1880783,2.68349424 Z M46.2255399,2.0193438 C46.2208425,1.82915874 46.1717549,1.68453823 46.0782184,1.585541 C45.9846232,1.48654378 45.8708292,1.43704516 45.7367778,1.43704516 C45.5933316,1.43704516 45.4748403,1.48930349 45.3813038,1.5937027 C45.2877085,1.69816063 45.2417329,1.84008014 45.2432596,2.0193438 L46.2255399,2.0193438 L46.2255399,2.0193438 Z"></path>
                                    <polygon points="49.2073176 3.47400413 48.4215051 0.990324577 49.0599374 0.990324577 49.5253888 2.61802454 49.9533198 0.990324577 50.5871135 0.990324577 51.0010698 2.61802454 51.4758573 0.990324577 52.1236256 0.990324577 51.3261871 3.47400413 50.6946834 3.47400413 50.2667523 1.87666096 49.8457499 3.47400413"></polygon>
                                    <path d="M53.9081005,2.68349424 L54.5629149,2.79341287 C54.4787144,3.03350757 54.3458374,3.21635298 54.1641663,3.34183167 C53.982554,3.46736908 53.7552596,3.53013779 53.4825181,3.53013779 C53.050653,3.53013779 52.7309378,3.38904032 52.523666,3.10684537 C52.3599624,2.88078409 52.2780519,2.59547713 52.2780519,2.25086579 C52.2780519,1.8392581 52.3856218,1.51690058 52.6007617,1.28385194 C52.8159603,1.05080331 53.0879972,0.934190918 53.4169897,0.934190918 C53.7864972,0.934190918 54.0780282,1.05620529 54.2916414,1.30017533 C54.5052546,1.54420408 54.6073639,1.91799788 54.5980278,2.42155674 L52.9515971,2.42155674 C52.9562944,2.61649789 53.0092574,2.76810575 53.110662,2.87643901 C53.2120079,2.984831 53.3382499,3.03896827 53.4895055,3.03896827 C53.5923781,3.03896827 53.6789272,3.01090144 53.7490943,2.95476778 C53.8192614,2.89869284 53.8722243,2.80826832 53.9081005,2.68349424 Z M53.9455034,2.0193438 C53.940806,1.82915874 53.8917184,1.68453823 53.7981819,1.585541 C53.7045867,1.48654378 53.5907927,1.43704516 53.4567413,1.43704516 C53.3132951,1.43704516 53.1948038,1.48930349 53.1012673,1.5937027 C53.007672,1.69816063 52.9616964,1.84008014 52.9632231,2.0193438 L53.9455034,2.0193438 L53.9455034,2.0193438 Z"></path>
                                    <path d="M55.105462,3.47400413 L55.105462,0.045505843 L55.7626251,0.045505843 L55.7626251,1.28032891 C55.9652582,1.04957025 56.2054116,0.934190918 56.4829679,0.934190918 C56.7853616,0.934190918 57.0356144,1.04375724 57.2336675,1.26277246 C57.4316033,1.4818464 57.5306592,1.79639453 57.5306592,2.20641685 C57.5306592,2.63053131 57.4297243,2.95711647 57.2278545,3.18628977 C57.025926,3.41546306 56.7807816,3.53007907 56.4923627,3.53007907 C56.3504432,3.53007907 56.21052,3.49461387 56.0725933,3.42362476 C55.9345491,3.35269436 55.8157055,3.24788413 55.7159449,3.10907663 L55.7159449,3.47388669 L55.105462,3.47388669 L55.105462,3.47400413 Z M55.7579864,2.17835002 C55.7579864,2.43559015 55.7985013,2.62583393 55.8795898,2.74896394 C55.9933838,2.92358894 56.1446393,3.01090144 56.3332977,3.01090144 C56.4783293,3.01090144 56.6018703,2.94889606 56.7039795,2.82494401 C56.80603,2.70099197 56.857114,2.50569851 56.857114,2.23912234 C56.857114,1.95534203 56.8056777,1.75071253 56.7027465,1.62517512 C56.5998739,1.49969643 56.4681125,1.43692773 56.3075796,1.43692773 C56.1500413,1.43692773 56.0191019,1.49811107 55.9147027,1.62047775 C55.8101861,1.74302058 55.7579864,1.92891929 55.7579864,2.17835002 Z"></path>
                                </g>
                            </g>
                        </g>
                    </g>
                </g>
            </g>
        </g>
    </g>
</svg>