<?xml version="1.0" encoding="UTF-8"?>
<svg width="343px" height="81px" viewBox="0 0 343 81" version="1.1" xmlns="http://www.w3.org/2000/svg" xmlns:xlink="http://www.w3.org/1999/xlink">
    <!-- Generator: Sketch 46.2 (44496) - http://www.bohemiancoding.com/sketch -->
    <title>semantify-logo2_1</title>
    <desc>Created with Sketch.</desc>
    <defs></defs>
    <g id="home" stroke="none" stroke-width="1" fill="none" fill-rule="evenodd">
        <g id="Desktop-HD" transform="translate(-771.000000, -4908.000000)">
            <g id="footer-blur" transform="translate(0.000000, 4324.000000)">
                <g id="semantify-logo2_1" transform="translate(772.000000, 586.000000)">
                    <g id="Group" stroke="#FFFFFF" stroke-width="2">
                        <polygon id="Shape" opacity="0.3" points="0.696875809 38.7712186 0.903864859 6.647673 32.4636687 6.86082377 32.2566796 38.9836583"></polygon>
                        <rect id="Rectangle-path" opacity="0.5" transform="translate(16.328330, 61.362354) rotate(90.378147) translate(-16.328330, -61.362354) " x="0.547123654" y="45.2991647" width="31.5624126" height="32.1263786"></rect>
                        <polygon id="Shape" opacity="0.3" points="38.3218954 77.5751476 38.5288845 45.4478687 70.0914831 45.6603084 69.884494 77.7874095"></polygon>
                        <polygon id="Shape" points="45.9242452 37.505647 40.2279414 5.91026733 71.2745521 0.113064129 76.9703318 31.7066661"></polygon>
                    </g>
                    <g id="Group" transform="translate(107.000000, 13.000000)" fill-rule="nonzero">
                        <g id="Shape" fill="#FFFFFF">
                            <path d="M0.132926309,25.2000036 L6.0576418,24.2909932 C6.3097798,25.4466288 6.82091311,26.3239707 7.59139338,26.9228418 C8.361522,27.5220668 9.44022955,27.821237 10.8268127,27.821237 C12.3533553,27.821237 13.5018668,27.5395818 14.272347,26.9757406 C14.7903377,26.581388 15.0496846,26.0529306 15.0496846,25.3903685 C15.0496846,24.9394017 14.9095494,24.5659255 14.6294546,24.2699398 C14.3352936,23.9881077 13.6768161,23.7275059 12.6545495,23.4877805 C7.89223586,22.4308657 4.87378884,21.4655951 3.59938423,20.5916147 C1.83459406,19.3797188 0.952111064,17.6954489 0.952111064,15.5391589 C0.952111064,13.5942872 1.71538237,11.9595546 3.24210081,10.6346074 C4.7684676,9.31019102 7.13582187,8.64745205 10.3432845,8.64745205 C13.3965455,8.64745205 15.6656117,9.1479562 17.1503071,10.1484337 C18.6348268,11.1492651 19.6572692,12.6290165 20.2176345,14.5878649 L14.6500266,15.6235493 C14.411779,14.7499228 13.9600757,14.0802839 13.2949167,13.6153405 C12.6295818,13.1502202 11.6804598,12.9177485 10.4482541,12.9177485 C8.89357889,12.9177485 7.78005731,13.1364205 7.10768931,13.5730569 C6.65932676,13.8831961 6.43532132,14.2848024 6.43532132,14.7780529 C6.43532132,15.2008896 6.63137004,15.5602123 7.02364332,15.8561979 C7.55570021,16.2509045 9.39398667,16.807492 12.5386785,17.5263143 C15.6828429,18.2451366 17.8784128,19.1260168 19.1250365,20.168778 C20.3574181,21.2256928 20.9738726,22.6985443 20.9738726,24.5869789 C20.9738726,26.644725 20.1193464,28.4132084 18.4106455,29.8929598 C16.7015929,31.3727112 14.1735315,32.1125869 10.8262852,32.1125869 C7.78673879,32.1125869 5.38122975,31.4926623 3.60958228,30.2522825 C1.8379348,29.0124334 0.679225307,27.3281635 0.132926309,25.2000036 Z"></path>
                            <path d="M39.0634554,24.4601279 L44.9461479,25.4537056 C44.1899097,27.6241492 42.995507,29.2765736 41.3639948,30.4109789 C39.732131,31.5455611 37.6905868,32.1127638 35.239714,32.1127638 C31.3598834,32.1127638 28.488429,30.8375309 26.6258782,28.2865343 C25.155249,26.2432955 24.4199345,23.6641688 24.4199345,20.549331 C24.4199345,16.8287223 25.3864635,13.9150415 27.3193456,11.8081119 C29.2522278,9.70135916 31.6962433,8.64762897 34.6515679,8.64762897 C37.9710332,8.64762897 40.589998,9.75054267 42.5091655,11.9560162 C44.4279814,14.1618437 45.3454543,17.5404678 45.2614083,22.0924195 L30.470719,22.0924195 C30.512742,23.8543569 30.9887096,25.2247722 31.8993251,26.2041964 C32.809589,27.1839744 33.9440342,27.6735096 35.3028364,27.6735096 C36.2273424,27.6735096 37.00468,27.4198076 37.6348492,26.9124036 C38.2650184,26.4049996 38.740986,25.5878103 39.0634554,24.4601279 Z M39.3996394,18.456378 C39.3576164,16.7370782 38.9164628,15.4301767 38.0760028,14.534966 C37.2357186,13.6401092 36.2131003,13.1926808 35.0086755,13.1926808 C33.7198529,13.1926808 32.6557391,13.6648779 31.8152791,14.6089182 C30.9749949,15.5533124 30.5616223,16.835799 30.5756885,18.456378 L39.3996394,18.456378 L39.3996394,18.456378 Z"></path>
                            <path d="M49.6312728,9.15503296 L55.0726359,9.15503296 L55.0726359,12.2203334 C57.0192326,9.8388253 59.3375308,8.64762897 62.0268269,8.64762897 C63.4554331,8.64762897 64.6950237,8.94361463 65.7454228,9.53558596 C66.795822,10.1275573 67.6573814,11.022591 68.3295736,12.2203334 C69.3098172,11.022591 70.3674253,10.1273804 71.5018705,9.53558596 C72.6364915,8.94361463 73.8477737,8.64762897 75.1365963,8.64762897 C76.7751416,8.64762897 78.1619006,8.98271375 79.2965216,9.65182181 C80.4307909,10.3214606 81.2782841,11.3044232 81.8384735,12.6008864 C82.2448131,13.5594341 82.4477191,15.1095993 82.4477191,17.2515589 L82.4477191,31.6055367 L76.544103,31.6055367 L76.544103,18.7737709 C76.544103,16.547244 76.3410212,15.1095993 75.9348574,14.4611908 C75.3887343,13.6156944 74.5482743,13.1928577 73.4138291,13.1928577 C72.5870837,13.1928577 71.8097461,13.4465597 71.0816405,13.9537868 C70.3531832,14.4611908 69.8279837,15.2046049 69.5060418,16.184029 C69.1837482,17.163807 69.0226894,18.7102569 69.0226894,20.8242633 L69.0226894,31.6055367 L63.1190733,31.6055367 L63.1190733,19.3022283 C63.1190733,17.117985 63.0141037,15.7084705 62.8039887,15.0743924 C62.5938737,14.4403143 62.2682394,13.9682942 61.8270858,13.657978 C61.3859322,13.3481927 60.7870605,13.1930346 60.0308224,13.1930346 C59.1202068,13.1930346 58.3008462,13.4398368 57.5727406,13.9329103 C56.8442833,14.4265146 56.3227761,15.1379064 56.0075157,16.0679701 C55.6924311,16.9982108 55.5348889,18.5412992 55.5348889,20.6975893 L55.5348889,31.6057136 L49.6312728,31.6057136 L49.6312728,9.15503296 L49.6312728,9.15503296 Z"></path>
                            <path d="M92.7426507,16.0041023 L87.3851578,15.0317549 C87.9873703,12.8614882 89.023879,11.2548858 90.494684,10.2117708 C91.9653132,9.16900957 94.1503333,8.64745205 97.0495687,8.64745205 C99.6827755,8.64745205 101.643439,8.96130654 102.932261,9.58813093 C104.220732,10.2153092 105.127655,11.011799 105.653031,11.9768927 C106.17823,12.9423403 106.440742,14.7145389 106.440742,17.2934887 L106.377795,24.2273023 C106.377795,26.200658 106.472391,27.6556408 106.661407,28.5926043 C106.850422,29.5300987 107.204013,30.5342915 107.722356,31.605006 L101.881686,31.605006 C101.727485,31.2106533 101.538293,30.6255818 101.314288,29.8504992 C101.216175,29.4984302 101.146372,29.2657815 101.104349,29.1529072 C100.095972,30.139585 99.0172649,30.8794607 97.8689292,31.3725343 C96.7204178,31.8657847 95.4948935,32.11241 94.1923563,32.11241 C91.8951576,32.11241 90.0850037,31.4855856 88.7613671,30.2310522 C87.4377305,28.9768726 86.7759123,27.3913236 86.7759123,25.474582 C86.7759123,24.206249 87.0769306,23.0752051 87.6793188,22.0816274 C88.2815313,21.0880497 89.1255078,20.3271206 90.2108969,19.7984864 C91.2962859,19.270029 92.8613349,18.808624 94.9065715,18.4139174 C97.6656716,17.8927138 99.5774543,17.4063631 100.642096,16.9552194 L100.642096,16.3632481 C100.642096,15.221766 100.361649,14.4079381 99.8018114,13.9215875 C99.2412703,13.4354138 98.1840138,13.192327 96.6293387,13.192327 C95.5787637,13.192327 94.7594031,13.4003838 94.1712569,13.8159668 C93.5829349,14.2320805 93.1066156,14.9613411 92.7426507,16.0041023 Z M100.642271,20.8240864 C99.8858574,21.0777884 98.6884657,21.3808508 97.0495687,21.7330968 C95.4108475,22.0855196 94.3393489,22.4306888 93.8352487,22.7689581 C93.0647685,23.3186458 92.6797042,24.0162378 92.6797042,24.8619112 C92.6797042,25.6936079 92.9875798,26.4124302 93.6042102,27.0182012 C94.220313,27.6243261 95.0046838,27.9272116 95.9573223,27.9272116 C97.0216119,27.9272116 98.0371971,27.5751426 99.0035502,26.8701199 C99.7179412,26.3347627 100.186876,25.6794544 100.411233,24.9041948 C100.565259,24.3967908 100.642271,23.4316971 100.642271,22.0080291 L100.642271,20.8240864 L100.642271,20.8240864 Z"></path>
                            <path d="M132.555663,31.6053598 L126.652047,31.6053598 L126.652047,20.1475478 C126.652047,17.723756 126.525978,16.155722 126.274016,15.4439764 C126.021878,14.7325847 125.612197,14.1793586 125.044975,13.7846521 C124.477576,13.3902994 123.79501,13.1926808 122.996573,13.1926808 C121.974131,13.1926808 121.056658,13.4746898 120.244506,14.0381772 C119.432003,14.6020184 118.87533,15.3487939 118.574136,16.2790346 C118.272766,17.2090983 118.122609,18.928752 118.122609,21.4371111 L118.122609,31.6053598 L112.218992,31.6053598 L112.218992,9.15503296 L117.702554,9.15503296 L117.702554,12.4528051 C119.649151,9.91596203 122.100376,8.64762897 125.0557,8.64762897 C126.358237,8.64762897 127.548772,8.88381597 128.627304,9.35583615 C129.705659,9.82821016 130.521328,10.4306197 131.074836,11.1632417 C131.627992,11.8962176 132.013056,12.7275605 132.23038,13.6578011 C132.447352,14.5880418 132.556014,15.9197119 132.556014,17.6531653 L132.556014,31.6053598 L132.555663,31.6053598 Z"></path>
                            <path d="M148.774958,9.15503296 L148.774958,13.8902728 L144.741102,13.8902728 L144.741102,22.9380928 C144.741102,24.7702671 144.779608,25.8379739 144.856621,26.1408594 C144.933634,26.4440987 145.108935,26.6940854 145.381821,26.8913502 C145.655058,27.0889689 145.98755,27.1873359 146.379823,27.1873359 C146.925946,27.1873359 147.717174,26.9971478 148.753859,26.6165949 L149.258135,31.2249837 C147.885266,31.816955 146.330591,32.1129407 144.594109,32.1129407 C143.529468,32.1129407 142.569972,31.9331909 141.715798,31.5738682 C140.861447,31.2145455 140.234619,30.7494252 139.835488,30.1786841 C139.436358,29.6079431 139.159604,28.8363989 139.005578,27.8638745 C138.879509,27.1735362 138.816562,25.7783521 138.816562,23.6781454 L138.816562,13.8904497 L136.106343,13.8904497 L136.106343,9.15520988 L138.816562,9.15520988 L138.816562,4.69472539 L144.741102,1.22781859 L144.741102,9.1553868 L148.774958,9.1553868 L148.774958,9.15503296 Z"></path>
                            <path d="M152.871761,6.11078591 L152.871761,0.614440054 L158.775377,0.614440054 L158.775377,6.11078591 L152.871761,6.11078591 Z M152.871761,31.6053598 L152.871761,9.15503296 L158.775377,9.15503296 L158.775377,31.6053598 L152.871761,31.6053598 L152.871761,31.6053598 Z"></path>
                            <path d="M162.242011,9.15503296 L165.519453,9.15503296 L165.519453,7.46386323 C165.519453,5.5754287 165.719019,4.16591418 166.118149,3.23585044 C166.51728,2.3057867 167.252594,1.54821909 168.324269,0.96332453 C169.395767,0.378783805 170.750877,0.0861596045 172.389598,0.0861596045 C174.070343,0.0861596045 175.715921,0.339861602 177.326686,0.847265597 L176.528424,4.99053413 C175.589852,4.76531611 174.686445,4.6522648 173.818205,4.6522648 C172.963678,4.6522648 172.35074,4.85306799 171.979918,5.25467436 C171.608568,5.65645765 171.423069,6.42800187 171.423069,7.56948394 L171.423069,9.15503296 L175.835133,9.15503296 L175.835133,13.8269358 L171.423069,13.8269358 L171.423069,31.6055367 L165.519453,31.6055367 L165.519453,13.8269358 L162.242011,13.8269358 L162.242011,9.15503296 L162.242011,9.15503296 Z"></path>
                            <path d="M176.360332,9.15503296 L182.642155,9.15503296 L187.978725,25.0943829 L193.189049,9.15503296 L199.30278,9.15503296 L191.424083,30.7598634 L190.016401,34.6706602 C189.498234,35.981277 189.004332,36.9817545 188.535222,37.6724467 C188.06576,38.362785 187.526846,38.9230878 186.9176,39.3531782 C186.308354,39.7829147 185.558798,40.1174687 184.669633,40.357371 C183.779941,40.5969195 182.775258,40.7166937 181.654879,40.7166937 C180.520434,40.7166937 179.406912,40.5967426 178.314314,40.357371 L177.789114,35.7065216 C178.71362,35.8894559 179.546696,35.981277 180.289395,35.981277 C181.661912,35.981277 182.677145,35.5759553 183.335623,34.7656658 C183.993749,33.9550224 184.498025,32.9228764 184.848451,31.6686968 L176.360332,9.15503296 Z"></path>
                            <polygon points="199.890927 31.6053598 199.890927 25.6651239 205.794543 25.6651239 205.794543 31.6053598"></polygon>
                            <path d="M211.845327,6.11078591 L211.845327,0.614440054 L217.748943,0.614440054 L217.748943,6.11078591 L211.845327,6.11078591 Z M211.845327,31.6053598 L211.845327,9.15503296 L217.748943,9.15503296 L217.748943,31.6053598 L211.845327,31.6053598 L211.845327,31.6053598 Z"></path>
                            <path d="M234.031361,9.15503296 L234.031361,13.8902728 L229.997505,13.8902728 L229.997505,22.9380928 C229.997505,24.7702671 230.036011,25.8379739 230.113024,26.1408594 C230.190037,26.4440987 230.365338,26.6940854 230.638224,26.8913502 C230.911461,27.0889689 231.243953,27.1873359 231.636226,27.1873359 C232.182349,27.1873359 232.973577,26.9971478 234.010262,26.6165949 L234.514538,31.2249837 C233.141669,31.816955 231.586994,32.1129407 229.850512,32.1129407 C228.785871,32.1129407 227.826375,31.9331909 226.9722,31.5738682 C226.11785,31.2145455 225.491022,30.7494252 225.091891,30.1786841 C224.69276,29.6079431 224.416006,28.8363989 224.261981,27.8638745 C224.135912,27.1735362 224.072965,25.7783521 224.072965,23.6781454 L224.072965,13.8904497 L221.362745,13.8904497 L221.362745,9.15520988 L224.072965,9.15520988 L224.072965,4.69472539 L229.997505,1.22781859 L229.997505,9.1553868 L234.031361,9.1553868 L234.031361,9.15503296 Z"></path>
                        </g>
                        <g transform="translate(2.989084, 39.629880)" id="Shape" fill="#C2C2C2">
                            <path d="M0.0678697822,10.4674189 L0.0678697822,0.137112307 L2.03574181,0.137112307 L2.03574181,3.8577211 C2.64270162,3.16242901 3.36166416,2.81478297 4.19280525,2.81478297 C5.0984976,2.81478297 5.84787846,3.14491402 6.440772,3.80482229 C7.03366554,4.46490747 7.33028813,5.41266312 7.33028813,6.64808923 C7.33028813,7.92597593 7.0278632,8.91 6.42336498,9.60051527 C5.81869094,10.2910305 5.08443133,10.6363766 4.2209378,10.6363766 C3.79596043,10.6363766 3.37696124,10.5295175 2.9639402,10.3156223 C2.55074334,10.101904 2.19469073,9.78610341 1.89595819,9.36786665 L1.89595819,10.467065 L0.0678697822,10.467065 L0.0678697822,10.4674189 Z M2.02167553,6.5635219 C2.02167553,7.3386045 2.14299716,7.91182241 2.38581626,8.28282177 C2.72657179,8.80897919 3.17950588,9.0720579 3.7444427,9.0720579 C4.17856314,9.0720579 4.54850621,8.88523133 4.85444771,8.51175509 C5.16021339,8.13827886 5.31318414,7.54984592 5.31318414,6.74663318 C5.31318414,5.89158314 5.15915842,5.27502005 4.85093114,4.89676701 C4.5428797,4.51869088 4.14814482,4.32956435 3.66742984,4.32956435 C3.19585793,4.32956435 2.80358466,4.51391406 2.49096167,4.88261348 C2.17816285,5.25184365 2.02167553,5.81196954 2.02167553,6.5635219 Z"></path>
                            <path d="M10.7965702,10.4674189 L8.8286982,10.4674189 L8.8286982,2.98391764 L10.6566108,2.98391764 L10.6566108,4.04790914 C10.9694096,3.54528196 11.2507351,3.21408939 11.5004115,3.05433144 C11.7500879,2.89457349 12.0336992,2.81478297 12.3512454,2.81478297 C12.7994321,2.81478297 13.2312668,2.93933402 13.6469252,3.1882592 L13.0376797,4.91463584 C12.7060672,4.69861761 12.3980158,4.59052003 12.1133495,4.59052003 C11.8378263,4.59052003 11.6043261,4.66694909 11.4130248,4.81945336 C11.2215476,4.97213455 11.0708626,5.24812835 10.9613215,5.64743477 C10.8516045,6.04674119 10.7967461,6.88303781 10.7967461,8.15597077 L10.7967461,10.4674189 L10.7965702,10.4674189 Z"></path>
                            <path d="M14.4944184,1.96910965 L14.4944184,0.136935388 L16.4622904,0.136935388 L16.4622904,1.96910965 L14.4944184,1.96910965 Z M14.4944184,10.4674189 L14.4944184,2.98391764 L16.4622904,2.98391764 L16.4622904,10.4674189 L14.4944184,10.4674189 Z"></path>
                            <path d="M25.2442182,10.4674189 L23.2763462,10.4674189 L23.2763462,6.64826615 C23.2763462,5.8402766 23.2343232,5.31765756 23.1502772,5.08040904 C23.0662312,4.84333744 22.9296125,4.65881081 22.7405969,4.52735991 C22.5514055,4.39590902 22.3238835,4.33009511 22.057855,4.33009511 C21.7169237,4.33009511 21.411158,4.42403916 21.1403822,4.61192725 C20.8694305,4.79981534 20.6839315,5.04874052 20.5835335,5.35887971 C20.4831354,5.66884198 20.4330243,6.24223681 20.4330243,7.07817958 L20.4330243,10.4675958 L18.4651523,10.4675958 L18.4651523,2.98409456 L20.2930649,2.98409456 L20.2930649,4.08329296 C20.9418719,3.23761963 21.7589467,2.81495989 22.7441135,2.81495989 C23.1782339,2.81495989 23.5750787,2.89368889 23.9346479,3.05096998 C24.2940413,3.20842798 24.5660479,3.40923117 24.7504919,3.65337953 C24.9347602,3.89770482 25.0631149,4.17476014 25.1355563,4.48489933 C25.2078217,4.79503852 25.2440424,5.23892856 25.2440424,5.81674636 L25.2440424,10.4674189 L25.2442182,10.4674189 Z"></path>
                            <path d="M27.0580645,10.9606694 L29.3060313,11.2354247 C29.3433069,11.4985034 29.4298145,11.6793148 29.5652024,11.7780356 C29.7519322,11.9190401 30.0460932,11.989454 30.4476854,11.989454 C30.9612803,11.989454 31.3463446,11.9119634 31.60323,11.7569822 C31.7758935,11.6536615 31.9067099,11.4868268 31.9953275,11.256655 C32.0559883,11.0921202 32.0864066,10.7890578 32.0864066,10.3476447 L32.0864066,9.25552301 C31.4980846,10.0635126 30.7557369,10.4675958 29.8593634,10.4675958 C28.8603062,10.4675958 28.0689023,10.0424592 27.4853277,9.19218597 C27.0276462,8.52042413 26.7990692,7.68430444 26.7990692,6.68347306 C26.7990692,5.42929351 27.0990326,4.47092272 27.6989592,3.80853759 C28.2988859,3.14615246 29.0445744,2.81495989 29.9365521,2.81495989 C30.8561349,2.81495989 31.6148347,3.22134308 32.2124756,4.03410945 L32.2124756,2.98409456 L34.0542786,2.98409456 L34.0542786,9.69958997 C34.0542786,10.5827701 33.9818373,11.2428553 33.8373063,11.6796686 C33.6924237,12.1166588 33.4893418,12.4593511 33.2280607,12.7084532 C32.9666038,12.9573784 32.6175843,13.1523432 32.1810023,13.2933478 C31.7444203,13.4341754 31.1923189,13.5047661 30.5248741,13.5047661 C29.2643599,13.5047661 28.3702723,13.2873325 27.8426111,12.8529961 C27.3149499,12.4183059 27.0512072,11.8675567 27.0512072,11.2005717 C27.0510314,11.1344039 27.0533172,11.0544365 27.0580645,10.9606694 Z M28.8158216,6.57059867 C28.8158216,7.36461161 28.9687923,7.94596779 29.274558,8.31466721 C29.5803237,8.68354354 29.9572999,8.86771633 30.4056624,8.86771633 C30.8863774,8.86771633 31.2925411,8.67876673 31.6241536,8.30051368 C31.9555902,7.92243755 32.1213965,7.36213474 32.1213965,6.61978218 C32.1213965,5.84469958 31.9626234,5.26935864 31.645253,4.89340554 C31.3277068,4.51762936 30.9262905,4.32956435 30.4406523,4.32956435 C29.9689046,4.32956435 29.5803237,4.51391406 29.274558,4.88261348 C28.9686165,5.25184365 28.8158216,5.81426949 28.8158216,6.57059867 Z"></path>
                            <path d="M39.838683,2.98391764 L41.6525293,2.98391764 L41.6525293,4.00562547 C42.3013363,3.21178944 43.0741023,2.81478297 43.9706516,2.81478297 C44.4467951,2.81478297 44.8599919,2.91350383 45.2102422,3.11076864 C45.5603166,3.30803344 45.8476203,3.60649597 46.0716258,4.00580239 C46.398315,3.60649597 46.7508511,3.30821036 47.1290581,3.11076864 C47.5072651,2.91332691 47.9109672,2.81478297 48.3406919,2.81478297 C48.8868151,2.81478297 49.3490681,2.92641893 49.7272751,3.14951392 C50.1054821,3.37260891 50.3878626,3.7002631 50.5745924,4.13247647 C50.7099803,4.45199238 50.7776743,4.96877308 50.7776743,5.68264167 L50.7776743,10.467242 L48.8098022,10.467242 L48.8098022,6.19004567 C48.8098022,5.44787002 48.7421083,4.96859616 48.6067204,4.75257794 C48.4245621,4.4707458 48.1444674,4.32974127 47.7662604,4.32974127 C47.4907372,4.32974127 47.2315661,4.41430861 46.9889228,4.58344327 C46.7461037,4.75257794 46.5709786,5.0004416 46.4637232,5.32685735 C46.356292,5.65345002 46.3026644,6.1689923 46.3026644,6.87366109 L46.3026644,10.4674189 L44.3347923,10.4674189 L44.3347923,6.3662571 C44.3347923,5.63805806 44.2998025,5.16833783 44.2298227,4.9569195 C44.159843,4.74550117 44.051181,4.58822009 43.9041885,4.48472241 C43.7571959,4.38157857 43.5574548,4.32974127 43.3053168,4.32974127 C43.0018368,4.32974127 42.7287753,4.41200866 42.4859562,4.57636651 C42.2431371,4.74090127 42.0692427,4.97797288 41.9642732,5.28793515 C41.8591277,5.59807434 41.8067309,6.11237818 41.8067309,6.83120051 L41.8067309,10.467242 L39.8388588,10.467242 L39.8388588,2.98391764 L39.838683,2.98391764 Z"></path>
                            <path d="M57.0454311,8.08555697 L59.00627,8.41674953 C58.754132,9.14017176 58.3560564,9.69109785 57.812219,10.069174 C57.2682057,10.447427 56.5877496,10.6365536 55.7708506,10.6365536 C54.4776324,10.6365536 53.5204223,10.2114169 52.899572,9.36114372 C52.4093623,8.68000516 52.1642574,7.82035523 52.1642574,6.782017 C52.1642574,5.54181407 52.4863752,4.57052818 53.1307864,3.86833625 C53.7750219,3.16614432 54.5896351,2.81478297 55.5748019,2.81478297 C56.6812904,2.81478297 57.5542786,3.18242087 58.1939425,3.91751976 C58.8334306,4.65279556 59.1393721,5.77906259 59.1112396,7.29632084 L54.1810098,7.29632084 C54.1950761,7.88369227 54.3536733,8.3404974 54.6571532,8.66691315 C54.9606331,8.99350582 55.3386643,9.15662523 55.7917742,9.15662523 C56.0998257,9.15662523 56.3589968,9.0720579 56.5691118,8.90292324 C56.7794026,8.73396549 56.9379999,8.46151007 57.0454311,8.08555697 Z M57.1576096,6.08442496 C57.1435434,5.51138398 56.9965508,5.07563222 56.716456,4.77734661 C56.4363613,4.479061 56.09543,4.32991819 55.6940136,4.32991819 C55.2644647,4.32991819 54.9096429,4.4873762 54.6295482,4.80193837 C54.3494534,5.11667746 54.2117798,5.54429093 54.2163513,6.08442496 L57.1576096,6.08442496 L57.1576096,6.08442496 Z"></path>
                            <path d="M62.1857759,5.2670587 L60.3998863,4.94294289 C60.6006824,4.21952067 60.9461853,3.68398654 61.436395,3.33616358 C61.9266047,2.98869445 62.6548862,2.81478297 63.6214152,2.81478297 C64.4991508,2.81478297 65.1527051,2.91934216 65.582254,3.12828363 C66.0116271,3.33740201 66.3140521,3.60278067 66.4891772,3.92459652 C66.6643023,4.24641237 66.7518649,4.83714527 66.7518649,5.6967952 L66.7307655,8.0080664 C66.7307655,8.66585163 66.7622388,9.1507869 66.8253612,9.46322604 C66.8884836,9.77566518 67.0062887,10.1103961 67.179128,10.4674189 L65.2321796,10.4674189 C65.1808377,10.335968 65.1177153,10.1410031 65.043164,9.88252432 C65.0104599,9.76505004 64.9870747,9.68755947 64.9731843,9.65005262 C64.6370003,9.97894524 64.2774311,10.2255705 63.8946526,10.3899283 C63.5116982,10.5542862 63.1034245,10.6365536 62.6691283,10.6365536 C61.9033954,10.6365536 61.2999521,10.4276121 60.8587985,10.0093753 C60.4176449,9.59131548 60.1969802,9.06285811 60.1969802,8.4238263 C60.1969802,8.00098964 60.2972025,7.62397502 60.4979985,7.29278246 C60.6987946,6.96158989 60.9801202,6.70788789 61.3417993,6.53185338 C61.7036542,6.35564195 62.2253373,6.20189925 62.9070242,6.07027143 C63.826607,5.89653687 64.4639851,5.73447897 64.8188069,5.58392081 L64.8188069,5.38665601 C64.8188069,5.00627993 64.725442,4.73488603 64.5387122,4.57282812 C64.3518065,4.41077022 63.9994463,4.32974127 63.4811041,4.32974127 C63.1310296,4.32974127 62.857968,4.39909356 62.6617435,4.53762122 C62.4660464,4.6763258 62.3070975,4.91941265 62.1857759,5.2670587 Z M64.8189827,6.87366109 C64.5668447,6.95822843 64.1677142,7.05924924 63.6214152,7.1765466 C63.0751162,7.29402089 62.7180086,7.40901831 62.5499166,7.5218927 C62.293207,7.70518089 62.1648523,7.9376526 62.1648523,8.21948473 C62.1648523,8.49671697 62.2675361,8.73626544 62.4729037,8.93830706 C62.6782713,9.14034868 62.9397283,9.24136948 63.2572744,9.24136948 C63.6120962,9.24136948 63.950566,9.1238952 64.2726837,8.88894663 C64.5107555,8.71043525 64.6672428,8.49194015 64.741794,8.23363826 C64.793136,8.06450359 64.8188069,7.74286466 64.8188069,7.2681907 L64.8188069,6.87366109 L64.8189827,6.87366109 Z"></path>
                            <path d="M75.456604,10.4674189 L73.4889078,10.4674189 L73.4889078,6.64826615 C73.4889078,5.8402766 73.4468848,5.31765756 73.3628388,5.08040904 C73.278617,4.84333744 73.1421741,4.65881081 72.9531586,4.52735991 C72.7639671,4.39590902 72.5364451,4.33009511 72.2704167,4.33009511 C71.9294853,4.33009511 71.6235438,4.42403916 71.352768,4.61192725 C71.0819922,4.79981534 70.8963173,5.04874052 70.7960951,5.35887971 C70.6956971,5.66884198 70.645586,6.24223681 70.645586,7.07817958 L70.645586,10.4675958 L68.6777139,10.4675958 L68.6777139,2.98409456 L70.5056265,2.98409456 L70.5056265,4.08329296 C71.1542577,3.23761963 71.9715083,2.81495989 72.9564993,2.81495989 C73.3907956,2.81495989 73.7876404,2.89368889 74.1470337,3.05096998 C74.5064271,3.20842798 74.7784337,3.40923117 74.9630536,3.65337953 C75.1473218,3.89770482 75.2755007,4.17476014 75.3479421,4.48489933 C75.4203834,4.79503852 75.4564282,5.23892856 75.4564282,5.81674636 L75.4564282,10.4674189 L75.456604,10.4674189 Z"></path>
                            <path d="M77.4526086,1.96910965 L77.4526086,0.136935388 L79.4204806,0.136935388 L79.4204806,1.96910965 L77.4526086,1.96910965 Z M77.4526086,10.4674189 L77.4526086,2.98391764 L79.4204806,2.98391764 L79.4204806,10.4674189 L77.4526086,10.4674189 Z"></path>
                            <path d="M88.2025843,10.4674189 L86.2347123,10.4674189 L86.2347123,6.64826615 C86.2347123,5.8402766 86.1928651,5.31765756 86.1086433,5.08040904 C86.0245973,4.84333744 85.8881544,4.65881081 85.698963,4.52735991 C85.5099474,4.39590902 85.2824254,4.33009511 85.0162211,4.33009511 C84.6754656,4.33009511 84.3695241,4.42403916 84.0987483,4.61192725 C83.8279724,4.79981534 83.6422976,5.04874052 83.5418995,5.35887971 C83.4415015,5.6690189 83.3915662,6.24223681 83.3915662,7.07817958 L83.3915662,10.4675958 L81.4236942,10.4675958 L81.4236942,2.98409456 L83.2516068,2.98409456 L83.2516068,4.08329296 C83.9004138,3.23761963 84.7174886,2.81495989 85.7026554,2.81495989 C86.1367758,2.81495989 86.5336206,2.89368889 86.8931898,3.05096998 C87.252759,3.20825106 87.5245898,3.40923117 87.7092097,3.65337953 C87.8936537,3.89770482 88.0218327,4.17476014 88.094274,4.48489933 C88.1665395,4.79503852 88.2027601,5.23892856 88.2027601,5.81674636 L88.2027601,10.4674189 L88.2025843,10.4674189 Z"></path>
                            <path d="M90.0162548,10.9606694 L92.2642215,11.2354247 C92.3014972,11.4985034 92.3878289,11.6793148 92.5233927,11.7780356 C92.7101225,11.9190401 93.0041077,11.989454 93.4058757,11.989454 C93.9194706,11.989454 94.3045349,11.9119634 94.5614202,11.7569822 C94.733908,11.6536615 94.8649002,11.4868268 94.9535177,11.256655 C95.0141785,11.0921202 95.0445968,10.7890578 95.0445968,10.3476447 L95.0445968,9.25552301 C94.4562748,10.0635126 93.7141029,10.4675958 92.8175537,10.4675958 C91.8183206,10.4675958 91.0270925,10.0424592 90.4435179,9.19218597 C89.9858365,8.52042413 89.7572595,7.68430444 89.7572595,6.68347306 C89.7572595,5.42929351 90.0572228,4.47092272 90.6571495,3.80853759 C91.2569003,3.14615246 92.0027646,2.81495989 92.8947424,2.81495989 C93.8143252,2.81495989 94.5730249,3.22134308 95.1706658,4.03410945 L95.1706658,2.98409456 L97.0126447,2.98409456 L97.0126447,9.69958997 C97.0126447,10.5827701 96.9402034,11.2428553 96.7954965,11.6796686 C96.6507897,12.1166588 96.447532,12.4593511 96.186251,12.7084532 C95.9247941,12.9573784 95.5757746,13.1523432 95.1393684,13.2933478 C94.7027863,13.4341754 94.150685,13.5047661 93.4830644,13.5047661 C92.2223744,13.5047661 91.3282867,13.2873325 90.8008013,12.8529961 C90.2731401,12.4183059 90.0093975,11.8675567 90.0093975,11.2005717 C90.0092216,11.1344039 90.0116832,11.0544365 90.0162548,10.9606694 Z M91.7740118,6.57059867 C91.7740118,7.36461161 91.9268067,7.94596779 92.2327482,8.31466721 C92.5383381,8.68354354 92.9154901,8.86771633 93.3636768,8.86771633 C93.8445676,8.86771633 94.2507314,8.67876673 94.5823438,8.30051368 C94.9137805,7.92243755 95.0795867,7.36213474 95.0795867,6.61978218 C95.0795867,5.84469958 94.9208136,5.26935864 94.6032674,4.89340554 C94.2857212,4.51762936 93.8843049,4.32956435 93.3986667,4.32956435 C92.9270948,4.32956435 92.5383381,4.51391406 92.2327482,4.88261348 C91.9268067,5.25184365 91.7740118,5.81426949 91.7740118,6.57059867 Z"></path>
                            <path d="M106.354762,2.98391764 L106.354762,4.5623899 L105.010202,4.5623899 L105.010202,7.57832989 C105.010202,8.18905464 105.023037,8.54483897 105.048708,8.64585978 C105.074379,8.74688058 105.13293,8.83020948 105.223833,8.89602339 C105.314912,8.9618373 105.425684,8.99474425 105.556501,8.99474425 C105.738659,8.99474425 106.002402,8.93140721 106.347905,8.80437929 L106.515997,10.3405679 C106.058315,10.5378327 105.540149,10.6365536 104.961321,10.6365536 C104.606324,10.6365536 104.286492,10.576578 104.001826,10.4568037 C103.716984,10.3370295 103.508099,10.1818715 103.375173,9.99168341 C103.242247,9.80149537 103.149937,9.54425499 103.098595,9.22013919 C103.056572,8.98996744 103.035648,8.52502403 103.035648,7.82495512 L103.035648,4.5623899 L102.132066,4.5623899 L102.132066,2.98391764 L103.035648,2.98391764 L103.035648,1.49708947 L105.010378,0.341453874 L105.010378,2.98391764 L106.354762,2.98391764 L106.354762,2.98391764 Z"></path>
                            <path d="M107.265026,6.61978218 C107.265026,5.96217386 107.426085,5.32561892 107.748378,4.71029427 C108.070496,4.0947927 108.526771,3.62507248 109.117379,3.30095667 C109.707811,2.97666395 110.367343,2.81460605 111.0958,2.81460605 C112.220751,2.81460605 113.143147,3.18224395 113.861934,3.91734284 C114.580896,4.65261864 114.940465,5.58162086 114.940465,6.70417259 C114.940465,7.83627795 114.577555,8.7748338 113.85156,9.5193094 C113.125564,10.263785 112.211608,10.6361997 111.109867,10.6361997 C110.428004,10.6361997 109.777966,10.4812186 109.159402,10.1710794 C108.540661,9.86111711 108.070496,9.40661193 107.748378,8.80756384 C107.426085,8.20886958 107.265026,7.47960903 107.265026,6.61978218 Z M109.281954,6.7255798 C109.281954,7.46793237 109.456903,8.03619654 109.806978,8.43090306 C110.157228,8.82543267 110.588887,9.02287439 111.102658,9.02287439 C111.616253,9.02287439 112.046856,8.82560959 112.394821,8.43090306 C112.74261,8.03637346 112.916504,7.46315555 112.916504,6.71160319 C112.916504,5.97862734 112.74261,5.41496307 112.394821,5.02043346 C112.046856,4.62590386 111.616253,4.42846213 111.102658,4.42846213 C110.588887,4.42846213 110.157228,4.62572694 109.806978,5.02043346 C109.456903,5.41496307 109.281954,5.98340415 109.281954,6.7255798 Z"></path>
                            <path d="M123.876595,2.98391764 L123.876595,4.5623899 L122.532034,4.5623899 L122.532034,7.57832989 C122.532034,8.18905464 122.54487,8.54483897 122.570541,8.64585978 C122.596212,8.74688058 122.654763,8.83020948 122.745666,8.89602339 C122.836745,8.9618373 122.947517,8.99474425 123.078333,8.99474425 C123.260492,8.99474425 123.524234,8.93140721 123.869737,8.80437929 L124.037829,10.3405679 C123.580148,10.5378327 123.061981,10.6365536 122.483154,10.6365536 C122.128156,10.6365536 121.808325,10.576578 121.523658,10.4568037 C121.238816,10.3370295 121.029932,10.1818715 120.897006,9.99168341 C120.764079,9.80149537 120.671769,9.54425499 120.620428,9.22013919 C120.578405,8.98996744 120.557481,8.52502403 120.557481,7.82495512 L120.557481,4.5623899 L119.653899,4.5623899 L119.653899,2.98391764 L120.557481,2.98391764 L120.557481,1.49708947 L122.53221,0.341453874 L122.53221,2.98391764 L123.876595,2.98391764 L123.876595,2.98391764 Z"></path>
                            <path d="M127.202917,0.136935388 L127.202917,3.93503475 C127.837834,3.18808228 128.596709,2.81460605 129.479017,2.81460605 C129.931775,2.81460605 130.340224,2.89917338 130.704541,3.06830805 C131.068682,3.23744271 131.342974,3.45346094 131.527418,3.71653965 C131.711862,3.97961836 131.837931,4.27100413 131.905625,4.59034312 C131.973319,4.90985902 132.007078,5.40540944 132.007078,6.07717128 L132.007078,10.467242 L130.039206,10.467242 L130.039206,6.51416147 C130.039206,5.72970216 130.001755,5.23167487 129.927203,5.02025654 C129.852476,4.80883821 129.720605,4.64094198 129.531413,4.51639093 C129.342398,4.3920168 129.105381,4.32974127 128.820715,4.32974127 C128.49385,4.32974127 128.201975,4.40970871 127.945265,4.56928974 C127.68838,4.72904769 127.500595,4.9698346 127.381383,5.29165045 C127.262347,5.6134663 127.202741,6.08920178 127.202741,6.71850304 L127.202741,10.467242 L125.235045,10.467242 L125.235045,0.136935388 L127.202917,0.136935388 Z"></path>
                            <path d="M138.310001,8.08555697 L140.270839,8.41674953 C140.018701,9.14017176 139.620802,9.69109785 139.076788,10.069174 C138.532951,10.447427 137.852319,10.6365536 137.035596,10.6365536 C135.742378,10.6365536 134.784992,10.2114169 134.164317,9.36114372 C133.674108,8.68000516 133.428827,7.82035523 133.428827,6.782017 C133.428827,5.54181407 133.750945,4.57052818 134.39518,3.86833625 C135.039591,3.16614432 135.854205,2.81478297 136.839371,2.81478297 C137.94586,2.81478297 138.818848,3.18242087 139.458512,3.91751976 C140.098176,4.65279556 140.403942,5.77906259 140.375985,7.29632084 L135.445755,7.29632084 C135.459821,7.88369227 135.618419,8.3404974 135.922074,8.66691315 C136.225554,8.99350582 136.603585,9.15662523 137.056519,9.15662523 C137.364571,9.15662523 137.623742,9.0720579 137.833857,8.90292324 C138.043972,8.73396549 138.202745,8.46151007 138.310001,8.08555697 Z M138.422179,6.08442496 C138.408113,5.51138398 138.26112,5.07563222 137.981025,4.77734661 C137.700755,4.479061 137.359999,4.32991819 136.958583,4.32991819 C136.529034,4.32991819 136.174212,4.4873762 135.894118,4.80193837 C135.613847,5.11667746 135.476173,5.54429093 135.480745,6.08442496 L138.422179,6.08442496 L138.422179,6.08442496 Z"></path>
                            <polygon points="147.351099 10.4674189 144.997987 2.98391764 146.90977 2.98391764 148.303562 7.88829216 149.585 2.98391764 151.482892 2.98391764 152.722483 7.88829216 154.144232 2.98391764 156.083971 2.98391764 153.696045 10.4674189 151.80501 10.4674189 150.523572 5.65451154 149.262882 10.4674189"></polygon>
                            <path d="M161.427574,8.08555697 L163.388413,8.41674953 C163.136275,9.14017176 162.738375,9.69109785 162.194362,10.069174 C161.650524,10.447427 160.969892,10.6365536 160.153169,10.6365536 C158.859951,10.6365536 157.902565,10.2114169 157.28189,9.36114372 C156.791681,8.68000516 156.5464,7.82035523 156.5464,6.782017 C156.5464,5.54181407 156.868518,4.57052818 157.512753,3.86833625 C158.157164,3.16614432 158.971778,2.81478297 159.956944,2.81478297 C161.063433,2.81478297 161.936421,3.18242087 162.576085,3.91751976 C163.215749,4.65279556 163.521515,5.77906259 163.493558,7.29632084 L158.563328,7.29632084 C158.577394,7.88369227 158.735992,8.3404974 159.039647,8.66691315 C159.343127,8.99350582 159.721159,9.15662523 160.174093,9.15662523 C160.482144,9.15662523 160.741315,9.0720579 160.95143,8.90292324 C161.161545,8.73396549 161.320142,8.46151007 161.427574,8.08555697 Z M161.539576,6.08442496 C161.52551,5.51138398 161.378518,5.07563222 161.098423,4.77734661 C160.818152,4.479061 160.477397,4.32991819 160.07598,4.32991819 C159.646431,4.32991819 159.29161,4.4873762 159.011515,4.80193837 C158.731244,5.11667746 158.593571,5.54429093 158.598142,6.08442496 L161.539576,6.08442496 L161.539576,6.08442496 Z"></path>
                            <path d="M165.013067,10.4674189 L165.013067,0.137112307 L166.980939,0.137112307 L166.980939,3.8577211 C167.587723,3.16242901 168.306862,2.81478297 169.138003,2.81478297 C170.043519,2.81478297 170.7929,3.14491402 171.38597,3.80482229 C171.978687,4.46490747 172.27531,5.41266312 172.27531,6.64808923 C172.27531,7.92597593 171.973061,8.91 171.368563,9.60051527 C170.763889,10.2910305 170.029805,10.6363766 169.166135,10.6363766 C168.741158,10.6363766 168.322159,10.5295175 167.909138,10.3156223 C167.495765,10.101904 167.139888,9.78610341 166.841156,9.36786665 L166.841156,10.467065 L165.013067,10.467065 L165.013067,10.4674189 Z M166.967049,6.5635219 C166.967049,7.3386045 167.088371,7.91182241 167.33119,8.28282177 C167.671945,8.80897919 168.124879,9.0720579 168.689816,9.0720579 C169.124112,9.0720579 169.494056,8.88523133 169.799821,8.51175509 C170.105411,8.13827886 170.258382,7.54984592 170.258382,6.74663318 C170.258382,5.89158314 170.104356,5.27502005 169.796129,4.89676701 C169.488077,4.51869088 169.093518,4.32956435 168.612803,4.32956435 C168.141056,4.32956435 167.748958,4.51391406 167.436335,4.88261348 C167.12336,5.25184365 166.967049,5.81196954 166.967049,6.5635219 Z"></path>
                        </g>
                    </g>
                </g>
            </g>
        </g>
    </g>
</svg>